<svg xmlns="http://www.w3.org/2000/svg" version="1.1" xmlns:xlink="http://www.w3.org/1999/xlink" xmlns:svgjs="http://svgjs.dev/svgjs" width="891px" height="681px"><svg xmlns="http://www.w3.org/2000/svg" xmlns:xlink="http://www.w3.org/1999/xlink" version="1.1" width="891px" height="681px" viewBox="-0.5 -0.5 891 681"><defs></defs><g><g data-cell-id="0"><g data-cell-id="1"><g data-cell-id="2WoJrZmWxROT33DHssS_-14"><g><path d="M 373 256.7 L 373 256.7 L 517 256.7 L 805 675 L 625 675 L 265 675 L 85 675 L 373 256.7" fill="#000000" stroke="rgb(0, 0, 0)" stroke-width="5" stroke-miterlimit="10" pointer-events="all"></path></g></g><g data-cell-id="2WoJrZmWxROT33DHssS_-15"><g><path d="M 5 675 L 525 5" fill="none" stroke="none" pointer-events="stroke"></path><path d="M 5 675 C 172.09 460.37 343.37 242.16 525 5 M 5 675 C 157.19 474.77 314.11 272.45 525 5" fill="none" stroke="rgb(0, 0, 0)" stroke-width="10" stroke-linejoin="round" stroke-linecap="round" stroke-miterlimit="10" pointer-events="stroke"></path></g></g><g data-cell-id="2WoJrZmWxROT33DHssS_-17"><g><path d="M 444.5 255 L 445 105" fill="none" stroke="rgb(0, 0, 0)" stroke-width="3" stroke-miterlimit="10" pointer-events="stroke"></path></g></g><g data-cell-id="qmjtyDYxVG1mDsSXJN3A-1"><g><path d="M 885 675 L 365 5" fill="none" stroke="none" pointer-events="stroke"></path><path d="M 885 675 C 728.45 476.5 576.2 278.02 365 5 M 885 675 C 736.39 479.76 587.77 286.71 365 5" fill="none" stroke="rgb(0, 0, 0)" stroke-width="10" stroke-linejoin="round" stroke-linecap="round" stroke-miterlimit="10" pointer-events="stroke"></path></g></g></g></g></g></svg><style>@media (prefers-color-scheme: light) { :root { filter: none; } }
@media (prefers-color-scheme: dark) { :root { filter: invert(100%); } }
</style></svg>